<?xml version="1.0" standalone="no"?>
<!DOCTYPE svg PUBLIC "-//W3C//DTD SVG 20010904//EN"
 "http://www.w3.org/TR/2001/REC-SVG-20010904/DTD/svg10.dtd">
<svg version="1.0" xmlns="http://www.w3.org/2000/svg"
 width="565.000000pt" height="565.000000pt" viewBox="0 0 565.000000 565.000000"
 preserveAspectRatio="xMidYMid meet">
<metadata>
Created by potrace 1.11, written by Peter Selinger 2001-2013
</metadata>
<g transform="translate(0.000000,565.000000) scale(0.100000,-0.100000)"
fill="#000000" stroke="none">
<path d="M2345 4620 c-661 -55 -1598 -676 -2038 -1352 -287 -439 -339 -830
-167 -1243 162 -386 497 -727 865 -878 533 -219 1276 -89 2388 417 103 47 434
209 735 360 496 248 759 374 942 451 113 48 233 111 296 158 67 49 136 145
172 237 103 268 94 660 -20 896 -98 203 -321 300 -738 319 -123 6 -189 2 -440
-24 -208 -21 -321 -38 -385 -56 -49 -13 -96 -25 -102 -25 -7 0 -72 48 -145
107 -354 286 -409 328 -498 387 -160 107 -334 186 -485 221 -54 12 -270 38
-285 34 -3 -1 -46 -5 -95 -9z m450 -224 c216 -39 383 -147 693 -451 l134 -130
-120 -32 c-79 -21 -238 -82 -478 -183 -382 -160 -523 -232 -1324 -673 -438
-241 -710 -373 -710 -344 0 24 49 204 80 292 46 133 188 413 280 553 151 231
319 427 517 602 197 173 374 279 568 338 90 28 127 34 245 40 19 1 71 -4 115
-12z m-1477 -328 c8 -8 8 -15 1 -24 -6 -7 -11 -34 -13 -61 -1 -26 -5 -54 -9
-60 -10 -16 -16 -44 -22 -108 -3 -27 -7 -63 -11 -80 -3 -16 -7 -34 -8 -40 -1
-5 -7 -19 -13 -30 -6 -11 -19 -47 -28 -80 -25 -91 -53 -170 -97 -275 -69 -165
-166 -420 -173 -453 -4 -18 -19 -72 -35 -122 -15 -49 -33 -115 -40 -145 -7
-30 -16 -60 -21 -66 -5 -6 -54 -19 -109 -29 -100 -18 -101 -18 -153 3 -28 12
-74 27 -102 33 -98 25 -162 86 -191 185 -13 45 -13 63 0 155 19 132 42 202
113 336 65 125 94 169 177 273 160 201 354 385 532 505 107 73 123 81 185 94
3 0 10 -4 17 -11z"/>
</g>
</svg>
